<?xml version="1.0" encoding="UTF-8"?>
<svg id="Layer_1" data-name="Layer 1" xmlns="http://www.w3.org/2000/svg" viewBox="0 0 267.23 267.57">
  <defs>
    <style>
      .cls-1 {
        fill: none;
      }

      .cls-1, .cls-2, .cls-3 {
        fill-rule: evenodd;
      }

      .cls-2 {
        fill: #d2d2d2;
      }

      .cls-3 {
        fill: #e6e6e5;
      }
    </style>
  </defs>
  <path id="path28094" class="cls-1" d="M133.62,267.4c73.59,0,133.62-60.03,133.62-133.62S207.21,.17,133.62,.17,0,60.19,0,133.78s60.02,133.62,133.62,133.62"/>
  <path id="path28096" class="cls-2" d="M6.6,91.68c5.8-17.48,15.1-33.37,27.07-46.81l20.58,11.88c15.61,9.02-11.43,55.85-27.04,46.83l-20.62-11.9Zm27.07,131.03c-11.97-13.45-21.28-29.33-27.07-46.81l20.62-11.9c15.61-9.01,42.65,37.82,27.04,46.83l-20.58,11.89Zm126.98,42.13c-8.73,1.79-17.78,2.73-27.04,2.73s-18.31-.94-27.04-2.73v-23.8c0-18.03,54.08-18.03,54.08,0v23.8Zm99.98-88.94c-5.79,17.48-15.09,33.36-27.07,46.81l-20.58-11.89c-15.61-9.01,11.43-55.84,27.04-46.83l20.62,11.9Zm-27.07-131.04c11.98,13.45,21.28,29.33,27.07,46.81l-20.62,11.9c-15.61,9.01-42.65-37.82-27.04-46.83l20.58-11.88ZM133.62,0c9.26,0,18.31,.94,27.04,2.74V26.54c0,18.02-54.08,18.02-54.08,0V2.74c8.73-1.79,17.78-2.74,27.04-2.74"/>
  <path id="path28098" class="cls-3" d="M235.14,46.67l-21.1,12.18c-8.01,4.63-.58,21.35,2.66,26.96,3.24,5.61,14.01,20.41,22.02,15.78l21.14-12.2c-5.56-15.81-14.01-30.26-24.71-42.73m24.71,131.5l-21.14-12.2c-8.01-4.63-18.78,10.17-22.02,15.79-3.24,5.61-10.67,22.33-2.66,26.96l21.1,12.19c10.7-12.46,19.15-26.91,24.71-42.72m-101.56,87.13v-24.4c0-9.25-18.2-11.18-24.68-11.18s-24.68,1.93-24.68,11.18v24.4c8,1.49,16.25,2.27,24.68,2.27s16.68-.78,24.68-2.27m-126.21-44.4l21.11-12.19c8.01-4.62,.58-21.35-2.66-26.96-3.24-5.61-14.01-20.41-22.02-15.79l-21.14,12.2c5.56,15.81,14.01,30.26,24.71,42.72M7.38,89.4l21.13,12.2c8.01,4.62,18.78-10.17,22.02-15.78,3.24-5.61,10.67-22.33,2.66-26.96l-21.11-12.18c-10.7,12.46-19.15,26.91-24.71,42.73M133.62,0C142.05,0,150.3,.78,158.29,2.27V26.67c0,9.25-18.2,11.18-24.68,11.18s-24.68-1.93-24.68-11.18V2.27C116.94,.78,125.19,0,133.62,0"/>
  <path id="path28100" class="cls-2" d="M133.62,206.63c40.12,0,72.84-32.72,72.84-72.84s-32.72-72.84-72.84-72.84S60.78,93.67,60.78,133.79s32.72,72.84,72.84,72.84"/>
  <path id="path28102" class="cls-3" d="M133.62,204.08c38.72,0,70.3-31.58,70.3-70.3s-31.58-70.3-70.3-70.3-70.3,31.58-70.3,70.3,31.58,70.3,70.3,70.3"/>
  <path id="path28104" class="cls-3" d="M178.78,55.56l-1.28,5.97,5.29,3.04-6.07,.63-1.26,5.97-2.47-5.57-6.06,.65,4.54-4.07-2.49-5.57,5.28,3.06,4.52-4.09ZM55.39,88.63l5.96,1.28,3.04-5.29,.63,6.07,5.97,1.26-5.58,2.47,.65,6.06-4.07-4.54-5.57,2.49,3.06-5.28-4.09-4.53Zm33.06,123.38l1.28-5.96-5.29-3.04,6.07-.63,1.26-5.97,2.47,5.58,6.06-.65-4.54,4.07,2.49,5.57-5.27-3.06-4.53,4.09Zm123.38-33.06l-5.96-1.28-3.04,5.29-.63-6.07-5.97-1.26,5.58-2.47-.65-6.06,4.07,4.54,5.57-2.49-3.06,5.28,4.09,4.52Zm12.1-45.16l-5.81,1.87v6.1s-3.56-4.94-3.56-4.94l-5.8,1.89,3.59-4.93-3.59-4.93,5.8,1.9,3.57-4.94v6.1s5.79,1.88,5.79,1.88ZM133.62,43.46l1.87,5.8h6.1s-4.94,3.56-4.94,3.56l1.9,5.8-4.93-3.59-4.93,3.59,1.9-5.8-4.94-3.57h6.1s1.87-5.79,1.87-5.79ZM43.29,133.79l5.81-1.88v-6.1s3.56,4.94,3.56,4.94l5.8-1.9-3.6,4.93,3.6,4.93-5.8-1.89-3.58,4.94v-6.1s-5.79-1.87-5.79-1.87Zm90.32,90.32l-1.87-5.8h-6.1s4.94-3.57,4.94-3.57l-1.9-5.79,4.93,3.59,4.93-3.59-1.9,5.79,4.94,3.58h-6.1s-1.87,5.79-1.87,5.79ZM211.84,88.63l-4.09,4.53,3.06,5.28-5.57-2.49-4.07,4.54,.65-6.06-5.58-2.47,5.97-1.26,.63-6.07,3.04,5.29,5.96-1.28ZM88.45,55.56l4.53,4.09,5.27-3.06-2.49,5.57,4.54,4.07-6.06-.65-2.47,5.57-1.26-5.97-6.07-.63,5.29-3.04-1.28-5.97Zm-33.06,123.38l4.09-4.52-3.06-5.28,5.57,2.49,4.07-4.54-.65,6.06,5.58,2.47-5.97,1.26-.63,6.07-3.04-5.29-5.96,1.28Zm123.38,33.06l-4.52-4.09-5.28,3.06,2.49-5.57-4.54-4.07,6.06,.65,2.47-5.58,1.26,5.97,6.07,.63-5.29,3.04,1.28,5.96Z"/>
  <path id="path28106" class="cls-3" d="M156.99,46.54l.31,6.09,5.9,1.57-5.7,2.18,.33,6.09-3.83-4.75-5.69,2.2,3.33-5.11-3.85-4.73,5.89,1.59,3.31-5.12ZM46.37,110.41l6.09-.31,1.57-5.89,2.17,5.7,6.09-.33-4.75,3.83,2.2,5.69-5.11-3.33-4.73,3.85,1.59-5.89-5.12-3.31Zm63.87,110.62l-.31-6.09-5.89-1.57,5.7-2.17-.33-6.09,3.83,4.75,5.69-2.2-3.33,5.11,3.85,4.73-5.89-1.59-3.31,5.12Zm110.62-63.87l-6.09,.31-1.57,5.89-2.17-5.7-6.09,.33,4.75-3.83-2.2-5.69,5.11,3.33,4.73-3.85-1.59,5.89,5.12,3.31Zm0-46.76l-5.12,3.31,1.59,5.89-4.73-3.85-5.11,3.33,2.2-5.69-4.75-3.83,6.09,.33,2.17-5.7,1.57,5.89,6.09,.31ZM110.24,46.54l3.31,5.12,5.89-1.59-3.85,4.73,3.33,5.11-5.69-2.2-3.83,4.75,.33-6.09-5.7-2.18,5.89-1.57,.31-6.09Zm-63.87,110.62l5.12-3.31-1.59-5.89,4.73,3.85,5.11-3.33-2.2,5.69,4.75,3.83-6.09-.33-2.17,5.7-1.57-5.89-6.09-.31Zm110.62,63.87l-3.31-5.12-5.89,1.59,3.85-4.73-3.33-5.11,5.69,2.2,3.83-4.75-.33,6.09,5.7,2.17-5.9,1.57-.31,6.09Zm40.49-151.11l-2.78,5.43,4.32,4.31-6.02-.97-2.76,5.44-.94-6.03-6.03-.94,5.44-2.76-.96-6.02,4.3,4.32,5.43-2.78Zm-127.74,0l5.43,2.78,4.31-4.32-.97,6.02,5.44,2.76-6.03,.94-.94,6.03-2.76-5.44-6.02,.97,4.32-4.31-2.78-5.43Zm0,127.74l2.78-5.43-4.32-4.31,6.02,.97,2.76-5.44,.94,6.03,6.03,.95-5.44,2.76,.97,6.02-4.31-4.32-5.43,2.78Zm127.74,0l-5.43-2.78-4.31,4.32,.97-6.02-5.44-2.76,6.03-.95,.94-6.03,2.76,5.44,6.02-.97-4.32,4.31,2.78,5.43Z"/>
</svg>