<?xml version="1.0" encoding="utf-8"?>
<!-- Generator: Adobe Illustrator 27.0.0, SVG Export Plug-In . SVG Version: 6.00 Build 0)  -->
<svg version="1.1" id="frame" xmlns="http://www.w3.org/2000/svg" xmlns:xlink="http://www.w3.org/1999/xlink" x="0px" y="0px"
	 viewBox="0 0 800 600" style="enable-background:new 0 0 800 600;" xml:space="preserve">
<style type="text/css">
	.st0{fill:none;stroke:#FFFFFF;stroke-width:4;}
	.st1{fill:#FFFFFF;}
	.st2{font-family:'Vogue-Regular';}
	.st3{font-size:45.833px;}
	.st4{font-size:12.5px;}
	.st5{font-size:33.333px;}
	.st6{fill-rule:evenodd;clip-rule:evenodd;}
	.st7{fill-rule:evenodd;clip-rule:evenodd;fill:#F01B26;}
	.st8{fill-rule:evenodd;clip-rule:evenodd;fill:#F01B26;stroke:#F01B26;stroke-width:4;}
	.st9{fill-rule:evenodd;clip-rule:evenodd;stroke:#000000;stroke-width:4;}
	.st10{font-size:25px;}
	.st11{font-size:100px;}
	.st12{font-size:41.667px;}
	.st13{font-size:20.833px;}
</style>
<image style="overflow:visible;enable-background:new    ;" width="800" height="600" id="Background" xlink:href="C2EDE214F4535A91.png" >
</image>
<path class="st0" d="M75,128h684c7.7,0,14,6.3,14,14v217c0,7.7-6.3,14-14,14H75c-30.9,0-56-25.1-56-56V184C19,153.1,44.1,128,75,128
	z"/>
<path class="st0" d="M107,373h604v87c0,16.6-13.4,30-30,30H137c-16.6,0-30-13.4-30-30V373z"/>
<text id="_1" transform="matrix(1 0 0 1 116.653 475.132)" class="st1 st2 st3">1</text>
<text id="to" transform="matrix(1 0 0 1 653.8008 459.0301)" class="st1 st2 st4">to</text>
<text id="even" transform="matrix(1 0 0 1 222.799 470.071)" class="st1 st2 st5">even</text>
<path class="st0" d="M107,428h604v35c0,16.6-13.4,30-30,30l0,0H137c-16.5,0-30-13.4-30-30l0,0V428z"/>
<path id="Line_1" class="st0" d="M310.6,375h1v114.1h-1V375z M510.6,376h1v115h-1V376z M415.6,430.1h1V490h-1V430.1z"/>
<text id="_36" transform="matrix(1 0 0 1 671.3356 470.1681)" class="st1 st2 st5">36</text>
<text id="_19" transform="matrix(1 0 0 1 620.2385 469.7841)" class="st1 st2 st5">19</text>
<g id="row1">
	<path class="st0" d="M107,129h54v80h-54V129z"/>
	<path class="st0" d="M161,129h50v80h-50V129z"/>
	<path class="st0" d="M211,129h50v80h-50V129z"/>
	<path class="st0" d="M261,129h50v80h-50V129z"/>
	<path class="st0" d="M311,129h50v80h-50V129z"/>
	<path class="st0" d="M361,129h50v80h-50V129z"/>
	<path class="st0" d="M411,129h50v80h-50V129z"/>
	<path class="st0" d="M461,129h50v80h-50V129z"/>
	<path class="st0" d="M511,129h50v80h-50V129z"/>
	<path class="st0" d="M561,129h50v80h-50V129z"/>
	<path class="st0" d="M611,129h50v80h-50V129z"/>
	<path class="st0" d="M661,129h50v80h-50V129z"/>
</g>
<g id="row2">
	<path class="st0" d="M107,211h54v80h-54V211z"/>
	<path class="st0" d="M161,211h50v80h-50V211z"/>
	<path class="st0" d="M211,211h50v80h-50V211z"/>
	<path class="st0" d="M261,211h50v80h-50V211z"/>
	<path class="st0" d="M311,211h50v80h-50V211z"/>
	<path class="st0" d="M361,211h50v80h-50V211z"/>
	<path class="st0" d="M411,211h50v80h-50V211z"/>
	<path class="st0" d="M461,211h50v80h-50V211z"/>
	<path class="st0" d="M511,211h50v80h-50V211z"/>
	<path class="st0" d="M561,211h50v80h-50V211z"/>
	<path class="st0" d="M611,211h50v80h-50V211z"/>
	<path class="st0" d="M661,211h50v80h-50V211z"/>
</g>
<g id="row3">
	<path class="st0" d="M107,293h54v80h-54V293z"/>
	<path class="st0" d="M161,293h50v80h-50V293z"/>
	<path class="st0" d="M211,293h50v80h-50V293z"/>
	<path class="st0" d="M261,293h50v80h-50V293z"/>
	<path class="st0" d="M311,293h50v80h-50V293z"/>
	<path class="st0" d="M361,293h50v80h-50V293z"/>
	<path class="st0" d="M411,293h50v80h-50V293z"/>
	<path class="st0" d="M461,293h50v80h-50V293z"/>
	<path class="st0" d="M511,293h50v80h-50V293z"/>
	<path class="st0" d="M561,293h50v80h-50V293z"/>
	<path class="st0" d="M611,293h50v80h-50V293z"/>
	<path class="st0" d="M661,293h50v80h-50V293z"/>
</g>
<path id="Line_2" class="st0" d="M210,428h1v63h-1V428z"/>
<path id="Line_3" class="st0" d="M612.9,429h1l1.6,64.1h-1L612.9,429z"/>
<path id="Line_4" class="st0" d="M709,292v-1h64v1H709z"/>
<path id="Line_5" class="st0" d="M710,210v-1h63v1H710z"/>
<g id="blacks">
	<path class="st6" d="M134.5,137c10.8,0,19.5,14.1,19.5,31.5s-8.7,31.5-19.5,31.5S115,185.9,115,168.5S123.7,137,134.5,137z
		 M134.5,137c10.8,0,19.5,14.1,19.5,31.5s-8.7,31.5-19.5,31.5S115,185.9,115,168.5S123.7,137,134.5,137z M134.5,137
		c10.8,0,19.5,14.1,19.5,31.5s-8.7,31.5-19.5,31.5S115,185.9,115,168.5S123.7,137,134.5,137z M134.5,137c10.8,0,19.5,14.1,19.5,31.5
		s-8.7,31.5-19.5,31.5S115,185.9,115,168.5S123.7,137,134.5,137z M134.5,137c10.8,0,19.5,14.1,19.5,31.5s-8.7,31.5-19.5,31.5
		S115,185.9,115,168.5S123.7,137,134.5,137z"/>
	<path id="Ellipse_1_copy_17" class="st6" d="M134.5,300c10.8,0,19.5,14.1,19.5,31.5s-8.7,31.5-19.5,31.5S115,348.9,115,331.5
		S123.7,300,134.5,300z M134.5,300c10.8,0,19.5,14.1,19.5,31.5s-8.7,31.5-19.5,31.5S115,348.9,115,331.5S123.7,300,134.5,300z
		 M134.5,300c10.8,0,19.5,14.1,19.5,31.5s-8.7,31.5-19.5,31.5S115,348.9,115,331.5S123.7,300,134.5,300z M134.5,300
		c10.8,0,19.5,14.1,19.5,31.5s-8.7,31.5-19.5,31.5S115,348.9,115,331.5S123.7,300,134.5,300z M134.5,300c10.8,0,19.5,14.1,19.5,31.5
		s-8.7,31.5-19.5,31.5S115,348.9,115,331.5S123.7,300,134.5,300z"/>
	<path id="Ellipse_1_copy_16" class="st6" d="M186.5,218c10.8,0,19.5,14.1,19.5,31.5s-8.7,31.5-19.5,31.5S167,266.9,167,249.5
		S175.7,218,186.5,218z M186.5,218c10.8,0,19.5,14.1,19.5,31.5s-8.7,31.5-19.5,31.5S167,266.9,167,249.5S175.7,218,186.5,218z
		 M186.5,218c10.8,0,19.5,14.1,19.5,31.5s-8.7,31.5-19.5,31.5S167,266.9,167,249.5S175.7,218,186.5,218z M186.5,218
		c10.8,0,19.5,14.1,19.5,31.5s-8.7,31.5-19.5,31.5S167,266.9,167,249.5S175.7,218,186.5,218z M186.5,218c10.8,0,19.5,14.1,19.5,31.5
		s-8.7,31.5-19.5,31.5S167,266.9,167,249.5S175.7,218,186.5,218z"/>
	<path id="Ellipse_1_copy_18" class="st6" d="M234.5,138c10.8,0,19.5,14.1,19.5,31.5s-8.7,31.5-19.5,31.5S215,186.9,215,169.5
		S223.7,138,234.5,138z M234.5,138c10.8,0,19.5,14.1,19.5,31.5s-8.7,31.5-19.5,31.5S215,186.9,215,169.5S223.7,138,234.5,138z
		 M234.5,138c10.8,0,19.5,14.1,19.5,31.5s-8.7,31.5-19.5,31.5S215,186.9,215,169.5S223.7,138,234.5,138z M234.5,138
		c10.8,0,19.5,14.1,19.5,31.5s-8.7,31.5-19.5,31.5S215,186.9,215,169.5S223.7,138,234.5,138z M234.5,138c10.8,0,19.5,14.1,19.5,31.5
		s-8.7,31.5-19.5,31.5S215,186.9,215,169.5S223.7,138,234.5,138z"/>
	<path id="Ellipse_1_copy_19" class="st6" d="M234.5,301c10.8,0,19.5,14.1,19.5,31.5s-8.7,31.5-19.5,31.5S215,349.9,215,332.5
		S223.7,301,234.5,301z M234.5,301c10.8,0,19.5,14.1,19.5,31.5s-8.7,31.5-19.5,31.5S215,349.9,215,332.5S223.7,301,234.5,301z
		 M234.5,301c10.8,0,19.5,14.1,19.5,31.5s-8.7,31.5-19.5,31.5S215,349.9,215,332.5S223.7,301,234.5,301z M234.5,301
		c10.8,0,19.5,14.1,19.5,31.5s-8.7,31.5-19.5,31.5S215,349.9,215,332.5S223.7,301,234.5,301z M234.5,301c10.8,0,19.5,14.1,19.5,31.5
		s-8.7,31.5-19.5,31.5S215,349.9,215,332.5S223.7,301,234.5,301z"/>
	<path id="Ellipse_1_copy_20" class="st6" d="M286.5,219c10.8,0,19.5,14.1,19.5,31.5s-8.7,31.5-19.5,31.5S267,267.9,267,250.5
		S275.7,219,286.5,219z M286.5,219c10.8,0,19.5,14.1,19.5,31.5s-8.7,31.5-19.5,31.5S267,267.9,267,250.5S275.7,219,286.5,219z
		 M286.5,219c10.8,0,19.5,14.1,19.5,31.5s-8.7,31.5-19.5,31.5S267,267.9,267,250.5S275.7,219,286.5,219z M286.5,219
		c10.8,0,19.5,14.1,19.5,31.5s-8.7,31.5-19.5,31.5S267,267.9,267,250.5S275.7,219,286.5,219z M286.5,219c10.8,0,19.5,14.1,19.5,31.5
		s-8.7,31.5-19.5,31.5S267,267.9,267,250.5S275.7,219,286.5,219z"/>
	<path id="Ellipse_1_copy_21" class="st6" d="M335.5,138c10.8,0,19.5,14.1,19.5,31.5s-8.7,31.5-19.5,31.5S316,186.9,316,169.5
		S324.7,138,335.5,138z M335.5,138c10.8,0,19.5,14.1,19.5,31.5s-8.7,31.5-19.5,31.5S316,186.9,316,169.5S324.7,138,335.5,138z
		 M335.5,138c10.8,0,19.5,14.1,19.5,31.5s-8.7,31.5-19.5,31.5S316,186.9,316,169.5S324.7,138,335.5,138z M335.5,138
		c10.8,0,19.5,14.1,19.5,31.5s-8.7,31.5-19.5,31.5S316,186.9,316,169.5S324.7,138,335.5,138z M335.5,138c10.8,0,19.5,14.1,19.5,31.5
		s-8.7,31.5-19.5,31.5S316,186.9,316,169.5S324.7,138,335.5,138z"/>
	<path id="Ellipse_1_copy_22" class="st6" d="M335.5,301c10.8,0,19.5,14.1,19.5,31.5s-8.7,31.5-19.5,31.5S316,349.9,316,332.5
		S324.7,301,335.5,301z M335.5,301c10.8,0,19.5,14.1,19.5,31.5s-8.7,31.5-19.5,31.5S316,349.9,316,332.5S324.7,301,335.5,301z
		 M335.5,301c10.8,0,19.5,14.1,19.5,31.5s-8.7,31.5-19.5,31.5S316,349.9,316,332.5S324.7,301,335.5,301z M335.5,301
		c10.8,0,19.5,14.1,19.5,31.5s-8.7,31.5-19.5,31.5S316,349.9,316,332.5S324.7,301,335.5,301z M335.5,301c10.8,0,19.5,14.1,19.5,31.5
		s-8.7,31.5-19.5,31.5S316,349.9,316,332.5S324.7,301,335.5,301z"/>
	<path id="Ellipse_1_copy_23" class="st6" d="M387.5,219c10.8,0,19.5,14.1,19.5,31.5s-8.7,31.5-19.5,31.5S368,267.9,368,250.5
		S376.7,219,387.5,219z M387.5,219c10.8,0,19.5,14.1,19.5,31.5s-8.7,31.5-19.5,31.5S368,267.9,368,250.5S376.7,219,387.5,219z
		 M387.5,219c10.8,0,19.5,14.1,19.5,31.5s-8.7,31.5-19.5,31.5S368,267.9,368,250.5S376.7,219,387.5,219z M387.5,219
		c10.8,0,19.5,14.1,19.5,31.5s-8.7,31.5-19.5,31.5S368,267.9,368,250.5S376.7,219,387.5,219z M387.5,219c10.8,0,19.5,14.1,19.5,31.5
		s-8.7,31.5-19.5,31.5S368,267.9,368,250.5S376.7,219,387.5,219z"/>
	<path id="Ellipse_1_copy_24" class="st6" d="M435.5,137c10.8,0,19.5,14.1,19.5,31.5s-8.7,31.5-19.5,31.5S416,185.9,416,168.5
		S424.7,137,435.5,137z M435.5,137c10.8,0,19.5,14.1,19.5,31.5s-8.7,31.5-19.5,31.5S416,185.9,416,168.5S424.7,137,435.5,137z
		 M435.5,137c10.8,0,19.5,14.1,19.5,31.5s-8.7,31.5-19.5,31.5S416,185.9,416,168.5S424.7,137,435.5,137z M435.5,137
		c10.8,0,19.5,14.1,19.5,31.5s-8.7,31.5-19.5,31.5S416,185.9,416,168.5S424.7,137,435.5,137z M435.5,137c10.8,0,19.5,14.1,19.5,31.5
		s-8.7,31.5-19.5,31.5S416,185.9,416,168.5S424.7,137,435.5,137z"/>
	<path id="Ellipse_1_copy_25" class="st6" d="M435.5,300c10.8,0,19.5,14.1,19.5,31.5s-8.7,31.5-19.5,31.5S416,348.9,416,331.5
		S424.7,300,435.5,300z M435.5,300c10.8,0,19.5,14.1,19.5,31.5s-8.7,31.5-19.5,31.5S416,348.9,416,331.5S424.7,300,435.5,300z
		 M435.5,300c10.8,0,19.5,14.1,19.5,31.5s-8.7,31.5-19.5,31.5S416,348.9,416,331.5S424.7,300,435.5,300z M435.5,300
		c10.8,0,19.5,14.1,19.5,31.5s-8.7,31.5-19.5,31.5S416,348.9,416,331.5S424.7,300,435.5,300z M435.5,300c10.8,0,19.5,14.1,19.5,31.5
		s-8.7,31.5-19.5,31.5S416,348.9,416,331.5S424.7,300,435.5,300z"/>
	<path id="Ellipse_1_copy_26" class="st6" d="M487.5,218c10.8,0,19.5,14.1,19.5,31.5s-8.7,31.5-19.5,31.5S468,266.9,468,249.5
		S476.7,218,487.5,218z M487.5,218c10.8,0,19.5,14.1,19.5,31.5s-8.7,31.5-19.5,31.5S468,266.9,468,249.5S476.7,218,487.5,218z
		 M487.5,218c10.8,0,19.5,14.1,19.5,31.5s-8.7,31.5-19.5,31.5S468,266.9,468,249.5S476.7,218,487.5,218z M487.5,218
		c10.8,0,19.5,14.1,19.5,31.5s-8.7,31.5-19.5,31.5S468,266.9,468,249.5S476.7,218,487.5,218z M487.5,218c10.8,0,19.5,14.1,19.5,31.5
		s-8.7,31.5-19.5,31.5S468,266.9,468,249.5S476.7,218,487.5,218z"/>
	<path id="Ellipse_1_copy_27" class="st6" d="M535.5,138c10.8,0,19.5,14.1,19.5,31.5s-8.7,31.5-19.5,31.5S516,186.9,516,169.5
		S524.7,138,535.5,138z M535.5,138c10.8,0,19.5,14.1,19.5,31.5s-8.7,31.5-19.5,31.5S516,186.9,516,169.5S524.7,138,535.5,138z
		 M535.5,138c10.8,0,19.5,14.1,19.5,31.5s-8.7,31.5-19.5,31.5S516,186.9,516,169.5S524.7,138,535.5,138z M535.5,138
		c10.8,0,19.5,14.1,19.5,31.5s-8.7,31.5-19.5,31.5S516,186.9,516,169.5S524.7,138,535.5,138z M535.5,138c10.8,0,19.5,14.1,19.5,31.5
		s-8.7,31.5-19.5,31.5S516,186.9,516,169.5S524.7,138,535.5,138z"/>
	<path id="Ellipse_1_copy_28" class="st6" d="M535.5,301c10.8,0,19.5,14.1,19.5,31.5s-8.7,31.5-19.5,31.5S516,349.9,516,332.5
		S524.7,301,535.5,301z M535.5,301c10.8,0,19.5,14.1,19.5,31.5s-8.7,31.5-19.5,31.5S516,349.9,516,332.5S524.7,301,535.5,301z
		 M535.5,301c10.8,0,19.5,14.1,19.5,31.5s-8.7,31.5-19.5,31.5S516,349.9,516,332.5S524.7,301,535.5,301z M535.5,301
		c10.8,0,19.5,14.1,19.5,31.5s-8.7,31.5-19.5,31.5S516,349.9,516,332.5S524.7,301,535.5,301z M535.5,301c10.8,0,19.5,14.1,19.5,31.5
		s-8.7,31.5-19.5,31.5S516,349.9,516,332.5S524.7,301,535.5,301z"/>
	<path id="Ellipse_1_copy_29" class="st6" d="M587.5,219c10.8,0,19.5,14.1,19.5,31.5s-8.7,31.5-19.5,31.5S568,267.9,568,250.5
		S576.7,219,587.5,219z M587.5,219c10.8,0,19.5,14.1,19.5,31.5s-8.7,31.5-19.5,31.5S568,267.9,568,250.5S576.7,219,587.5,219z
		 M587.5,219c10.8,0,19.5,14.1,19.5,31.5s-8.7,31.5-19.5,31.5S568,267.9,568,250.5S576.7,219,587.5,219z M587.5,219
		c10.8,0,19.5,14.1,19.5,31.5s-8.7,31.5-19.5,31.5S568,267.9,568,250.5S576.7,219,587.5,219z M587.5,219c10.8,0,19.5,14.1,19.5,31.5
		s-8.7,31.5-19.5,31.5S568,267.9,568,250.5S576.7,219,587.5,219z"/>
	<path id="Ellipse_1_copy_30" class="st6" d="M635.5,137c10.8,0,19.5,14.1,19.5,31.5s-8.7,31.5-19.5,31.5S616,185.9,616,168.5
		S624.7,137,635.5,137z M635.5,137c10.8,0,19.5,14.1,19.5,31.5s-8.7,31.5-19.5,31.5S616,185.9,616,168.5S624.7,137,635.5,137z
		 M635.5,137c10.8,0,19.5,14.1,19.5,31.5s-8.7,31.5-19.5,31.5S616,185.9,616,168.5S624.7,137,635.5,137z M635.5,137
		c10.8,0,19.5,14.1,19.5,31.5s-8.7,31.5-19.5,31.5S616,185.9,616,168.5S624.7,137,635.5,137z M635.5,137c10.8,0,19.5,14.1,19.5,31.5
		s-8.7,31.5-19.5,31.5S616,185.9,616,168.5S624.7,137,635.5,137z"/>
	<path id="Ellipse_1_copy_31" class="st6" d="M635.5,300c10.8,0,19.5,14.1,19.5,31.5s-8.7,31.5-19.5,31.5S616,348.9,616,331.5
		S624.7,300,635.5,300z M635.5,300c10.8,0,19.5,14.1,19.5,31.5s-8.7,31.5-19.5,31.5S616,348.9,616,331.5S624.7,300,635.5,300z
		 M635.5,300c10.8,0,19.5,14.1,19.5,31.5s-8.7,31.5-19.5,31.5S616,348.9,616,331.5S624.7,300,635.5,300z M635.5,300
		c10.8,0,19.5,14.1,19.5,31.5s-8.7,31.5-19.5,31.5S616,348.9,616,331.5S624.7,300,635.5,300z M635.5,300c10.8,0,19.5,14.1,19.5,31.5
		s-8.7,31.5-19.5,31.5S616,348.9,616,331.5S624.7,300,635.5,300z"/>
	<path id="Ellipse_1_copy_32" class="st6" d="M687.5,218c10.8,0,19.5,14.1,19.5,31.5s-8.7,31.5-19.5,31.5S668,266.9,668,249.5
		S676.7,218,687.5,218z M687.5,218c10.8,0,19.5,14.1,19.5,31.5s-8.7,31.5-19.5,31.5S668,266.9,668,249.5S676.7,218,687.5,218z
		 M687.5,218c10.8,0,19.5,14.1,19.5,31.5s-8.7,31.5-19.5,31.5S668,266.9,668,249.5S676.7,218,687.5,218z M687.5,218
		c10.8,0,19.5,14.1,19.5,31.5s-8.7,31.5-19.5,31.5S668,266.9,668,249.5S676.7,218,687.5,218z M687.5,218c10.8,0,19.5,14.1,19.5,31.5
		s-8.7,31.5-19.5,31.5S668,266.9,668,249.5S676.7,218,687.5,218z"/>
</g>
<path class="st7" d="M286,137.5c10.8,0,19.5,14.1,19.5,31.5s-8.7,31.5-19.5,31.5s-19.5-14.1-19.5-31.5S275.2,137.5,286,137.5z
	 M286,137.5c10.8,0,19.5,14.1,19.5,31.5s-8.7,31.5-19.5,31.5s-19.5-14.1-19.5-31.5S275.2,137.5,286,137.5z M286,137.5
	c10.8,0,19.5,14.1,19.5,31.5s-8.7,31.5-19.5,31.5s-19.5-14.1-19.5-31.5S275.2,137.5,286,137.5z M286,137.5
	c10.8,0,19.5,14.1,19.5,31.5s-8.7,31.5-19.5,31.5s-19.5-14.1-19.5-31.5S275.2,137.5,286,137.5z M286,137.5
	c10.8,0,19.5,14.1,19.5,31.5s-8.7,31.5-19.5,31.5s-19.5-14.1-19.5-31.5S275.2,137.5,286,137.5z"/>
<path id="Ellipse_1_copy_10_00000114038013687263824480000006984581336279414713_" class="st7" d="M687,137.5
	c10.8,0,19.5,14.1,19.5,31.5s-8.7,31.5-19.5,31.5s-19.5-14.1-19.5-31.5S676.2,137.5,687,137.5z M687,137.5
	c10.8,0,19.5,14.1,19.5,31.5s-8.7,31.5-19.5,31.5s-19.5-14.1-19.5-31.5S676.2,137.5,687,137.5z M687,137.5
	c10.8,0,19.5,14.1,19.5,31.5s-8.7,31.5-19.5,31.5s-19.5-14.1-19.5-31.5S676.2,137.5,687,137.5z M687,137.5
	c10.8,0,19.5,14.1,19.5,31.5s-8.7,31.5-19.5,31.5s-19.5-14.1-19.5-31.5S676.2,137.5,687,137.5z M687,137.5
	c10.8,0,19.5,14.1,19.5,31.5s-8.7,31.5-19.5,31.5s-19.5-14.1-19.5-31.5S676.2,137.5,687,137.5z"/>
<path id="Ellipse_1_copy_7_00000171697452384837127240000007921620622525965993_" class="st7" d="M587,137.5
	c10.8,0,19.5,14.1,19.5,31.5s-8.7,31.5-19.5,31.5s-19.5-14.1-19.5-31.5S576.2,137.5,587,137.5z M587,137.5
	c10.8,0,19.5,14.1,19.5,31.5s-8.7,31.5-19.5,31.5s-19.5-14.1-19.5-31.5S576.2,137.5,587,137.5z M587,137.5
	c10.8,0,19.5,14.1,19.5,31.5s-8.7,31.5-19.5,31.5s-19.5-14.1-19.5-31.5S576.2,137.5,587,137.5z M587,137.5
	c10.8,0,19.5,14.1,19.5,31.5s-8.7,31.5-19.5,31.5s-19.5-14.1-19.5-31.5S576.2,137.5,587,137.5z M587,137.5
	c10.8,0,19.5,14.1,19.5,31.5s-8.7,31.5-19.5,31.5s-19.5-14.1-19.5-31.5S576.2,137.5,587,137.5z"/>
<path id="Ellipse_1_copy_4_00000083779586931987345040000016817504217763681938_" class="st7" d="M486,137.5
	c10.8,0,19.5,14.1,19.5,31.5s-8.7,31.5-19.5,31.5s-19.5-14.1-19.5-31.5S475.2,137.5,486,137.5z M486,137.5
	c10.8,0,19.5,14.1,19.5,31.5s-8.7,31.5-19.5,31.5s-19.5-14.1-19.5-31.5S475.2,137.5,486,137.5z M486,137.5
	c10.8,0,19.5,14.1,19.5,31.5s-8.7,31.5-19.5,31.5s-19.5-14.1-19.5-31.5S475.2,137.5,486,137.5z M486,137.5
	c10.8,0,19.5,14.1,19.5,31.5s-8.7,31.5-19.5,31.5s-19.5-14.1-19.5-31.5S475.2,137.5,486,137.5z M486,137.5
	c10.8,0,19.5,14.1,19.5,31.5s-8.7,31.5-19.5,31.5s-19.5-14.1-19.5-31.5S475.2,137.5,486,137.5z"/>
<path class="st7" d="M385.5,137.5c10.8,0,19.5,14.1,19.5,31.5s-8.7,31.5-19.5,31.5S366,186.4,366,169S374.7,137.5,385.5,137.5z
	 M385.5,137.5c10.8,0,19.5,14.1,19.5,31.5s-8.7,31.5-19.5,31.5S366,186.4,366,169S374.7,137.5,385.5,137.5z M385.5,137.5
	c10.8,0,19.5,14.1,19.5,31.5s-8.7,31.5-19.5,31.5S366,186.4,366,169S374.7,137.5,385.5,137.5z M385.5,137.5
	c10.8,0,19.5,14.1,19.5,31.5s-8.7,31.5-19.5,31.5S366,186.4,366,169S374.7,137.5,385.5,137.5z M385.5,137.5
	c10.8,0,19.5,14.1,19.5,31.5s-8.7,31.5-19.5,31.5S366,186.4,366,169S374.7,137.5,385.5,137.5z"/>
<path class="st7" d="M135.5,219c10.8,0,19.5,14.1,19.5,31.5s-8.7,31.5-19.5,31.5S116,267.9,116,250.5S124.7,219,135.5,219z
	 M135.5,219c10.8,0,19.5,14.1,19.5,31.5s-8.7,31.5-19.5,31.5S116,267.9,116,250.5S124.7,219,135.5,219z M135.5,219
	c10.8,0,19.5,14.1,19.5,31.5s-8.7,31.5-19.5,31.5S116,267.9,116,250.5S124.7,219,135.5,219z M135.5,219c10.8,0,19.5,14.1,19.5,31.5
	s-8.7,31.5-19.5,31.5S116,267.9,116,250.5S124.7,219,135.5,219z M135.5,219c10.8,0,19.5,14.1,19.5,31.5s-8.7,31.5-19.5,31.5
	S116,267.9,116,250.5S124.7,219,135.5,219z"/>
<path id="Ellipse_1_copy_10" class="st7" d="M536.5,219c10.8,0,19.5,14.1,19.5,31.5s-8.7,31.5-19.5,31.5S517,267.9,517,250.5
	S525.7,219,536.5,219z M536.5,219c10.8,0,19.5,14.1,19.5,31.5s-8.7,31.5-19.5,31.5S517,267.9,517,250.5S525.7,219,536.5,219z
	 M536.5,219c10.8,0,19.5,14.1,19.5,31.5s-8.7,31.5-19.5,31.5S517,267.9,517,250.5S525.7,219,536.5,219z M536.5,219
	c10.8,0,19.5,14.1,19.5,31.5s-8.7,31.5-19.5,31.5S517,267.9,517,250.5S525.7,219,536.5,219z M536.5,219c10.8,0,19.5,14.1,19.5,31.5
	s-8.7,31.5-19.5,31.5S517,267.9,517,250.5S525.7,219,536.5,219z"/>
<path id="Ellipse_1_copy_13" class="st7" d="M637.5,218c10.8,0,19.5,14.1,19.5,31.5s-8.7,31.5-19.5,31.5S618,266.9,618,249.5
	S626.7,218,637.5,218z M637.5,218c10.8,0,19.5,14.1,19.5,31.5s-8.7,31.5-19.5,31.5S618,266.9,618,249.5S626.7,218,637.5,218z
	 M637.5,218c10.8,0,19.5,14.1,19.5,31.5s-8.7,31.5-19.5,31.5S618,266.9,618,249.5S626.7,218,637.5,218z M637.5,218
	c10.8,0,19.5,14.1,19.5,31.5s-8.7,31.5-19.5,31.5S618,266.9,618,249.5S626.7,218,637.5,218z M637.5,218c10.8,0,19.5,14.1,19.5,31.5
	s-8.7,31.5-19.5,31.5S618,266.9,618,249.5S626.7,218,637.5,218z"/>
<path id="Ellipse_1_copy_7" class="st7" d="M437.5,218c10.8,0,19.5,14.1,19.5,31.5s-8.7,31.5-19.5,31.5S418,266.9,418,249.5
	S426.7,218,437.5,218z M437.5,218c10.8,0,19.5,14.1,19.5,31.5s-8.7,31.5-19.5,31.5S418,266.9,418,249.5S426.7,218,437.5,218z
	 M437.5,218c10.8,0,19.5,14.1,19.5,31.5s-8.7,31.5-19.5,31.5S418,266.9,418,249.5S426.7,218,437.5,218z M437.5,218
	c10.8,0,19.5,14.1,19.5,31.5s-8.7,31.5-19.5,31.5S418,266.9,418,249.5S426.7,218,437.5,218z M437.5,218c10.8,0,19.5,14.1,19.5,31.5
	s-8.7,31.5-19.5,31.5S418,266.9,418,249.5S426.7,218,437.5,218z"/>
<path id="Ellipse_1_copy_4" class="st7" d="M338.5,219c10.8,0,19.5,14.1,19.5,31.5s-8.7,31.5-19.5,31.5S319,267.9,319,250.5
	S327.7,219,338.5,219z M338.5,219c10.8,0,19.5,14.1,19.5,31.5s-8.7,31.5-19.5,31.5S319,267.9,319,250.5S327.7,219,338.5,219z
	 M338.5,219c10.8,0,19.5,14.1,19.5,31.5s-8.7,31.5-19.5,31.5S319,267.9,319,250.5S327.7,219,338.5,219z M338.5,219
	c10.8,0,19.5,14.1,19.5,31.5s-8.7,31.5-19.5,31.5S319,267.9,319,250.5S327.7,219,338.5,219z M338.5,219c10.8,0,19.5,14.1,19.5,31.5
	s-8.7,31.5-19.5,31.5S319,267.9,319,250.5S327.7,219,338.5,219z"/>
<path id="Ellipse_1_copy" class="st7" d="M237.5,219c10.8,0,19.5,14.1,19.5,31.5s-8.7,31.5-19.5,31.5S218,267.9,218,250.5
	S226.7,219,237.5,219z M237.5,219c10.8,0,19.5,14.1,19.5,31.5s-8.7,31.5-19.5,31.5S218,267.9,218,250.5S226.7,219,237.5,219z
	 M237.5,219c10.8,0,19.5,14.1,19.5,31.5s-8.7,31.5-19.5,31.5S218,267.9,218,250.5S226.7,219,237.5,219z M237.5,219
	c10.8,0,19.5,14.1,19.5,31.5s-8.7,31.5-19.5,31.5S218,267.9,218,250.5S226.7,219,237.5,219z M237.5,219c10.8,0,19.5,14.1,19.5,31.5
	s-8.7,31.5-19.5,31.5S218,267.9,218,250.5S226.7,219,237.5,219z"/>
<path class="st7" d="M187,137c10.8,0,19.5,14.1,19.5,31.5S197.8,200,187,200s-19.5-14.1-19.5-31.5S176.2,137,187,137z M187,137
	c10.8,0,19.5,14.1,19.5,31.5S197.8,200,187,200s-19.5-14.1-19.5-31.5S176.2,137,187,137z M187,137c10.8,0,19.5,14.1,19.5,31.5
	S197.8,200,187,200s-19.5-14.1-19.5-31.5S176.2,137,187,137z M187,137c10.8,0,19.5,14.1,19.5,31.5S197.8,200,187,200
	s-19.5-14.1-19.5-31.5S176.2,137,187,137z M187,137c10.8,0,19.5,14.1,19.5,31.5S197.8,200,187,200s-19.5-14.1-19.5-31.5
	S176.2,137,187,137z"/>
<path class="st7" d="M186.5,300.5c10.8,0,19.5,14.1,19.5,31.5s-8.7,31.5-19.5,31.5S167,349.4,167,332S175.7,300.5,186.5,300.5z
	 M186.5,300.5c10.8,0,19.5,14.1,19.5,31.5s-8.7,31.5-19.5,31.5S167,349.4,167,332S175.7,300.5,186.5,300.5z M186.5,300.5
	c10.8,0,19.5,14.1,19.5,31.5s-8.7,31.5-19.5,31.5S167,349.4,167,332S175.7,300.5,186.5,300.5z M186.5,300.5
	c10.8,0,19.5,14.1,19.5,31.5s-8.7,31.5-19.5,31.5S167,349.4,167,332S175.7,300.5,186.5,300.5z M186.5,300.5
	c10.8,0,19.5,14.1,19.5,31.5s-8.7,31.5-19.5,31.5S167,349.4,167,332S175.7,300.5,186.5,300.5z"/>
<path id="Ellipse_1_copy_10_00000154415818753137230590000010682045151098826154_" class="st7" d="M586.5,300.5
	c10.8,0,19.5,14.1,19.5,31.5s-8.7,31.5-19.5,31.5S567,349.4,567,332S575.7,300.5,586.5,300.5z M586.5,300.5
	c10.8,0,19.5,14.1,19.5,31.5s-8.7,31.5-19.5,31.5S567,349.4,567,332S575.7,300.5,586.5,300.5z M586.5,300.5
	c10.8,0,19.5,14.1,19.5,31.5s-8.7,31.5-19.5,31.5S567,349.4,567,332S575.7,300.5,586.5,300.5z M586.5,300.5
	c10.8,0,19.5,14.1,19.5,31.5s-8.7,31.5-19.5,31.5S567,349.4,567,332S575.7,300.5,586.5,300.5z M586.5,300.5
	c10.8,0,19.5,14.1,19.5,31.5s-8.7,31.5-19.5,31.5S567,349.4,567,332S575.7,300.5,586.5,300.5z"/>
<path id="Ellipse_1_copy_13_00000022543143800772781280000001240348673509909380_" class="st7" d="M687.5,299.5
	c10.8,0,19.5,14.1,19.5,31.5s-8.7,31.5-19.5,31.5S668,348.4,668,331S676.7,299.5,687.5,299.5z M687.5,299.5
	c10.8,0,19.5,14.1,19.5,31.5s-8.7,31.5-19.5,31.5S668,348.4,668,331S676.7,299.5,687.5,299.5z M687.5,299.5
	c10.8,0,19.5,14.1,19.5,31.5s-8.7,31.5-19.5,31.5S668,348.4,668,331S676.7,299.5,687.5,299.5z M687.5,299.5
	c10.8,0,19.5,14.1,19.5,31.5s-8.7,31.5-19.5,31.5S668,348.4,668,331S676.7,299.5,687.5,299.5z M687.5,299.5
	c10.8,0,19.5,14.1,19.5,31.5s-9.7,31.5-20.5,31.5S668,348.4,668,331S676.7,299.5,687.5,299.5z"/>
<path id="Ellipse_1_copy_7_00000081624235429821013820000005133711262885602959_" class="st7" d="M486.5,299.5
	c10.8,0,19.5,14.1,19.5,31.5s-8.7,31.5-19.5,31.5S467,348.4,467,331S475.7,299.5,486.5,299.5z M486.5,299.5
	c10.8,0,19.5,14.1,19.5,31.5s-8.7,31.5-19.5,31.5S467,348.4,467,331S475.7,299.5,486.5,299.5z M486.5,299.5
	c10.8,0,19.5,14.1,19.5,31.5s-8.7,31.5-19.5,31.5S467,348.4,467,331S475.7,299.5,486.5,299.5z M486.5,299.5
	c10.8,0,19.5,14.1,19.5,31.5s-8.7,31.5-19.5,31.5S467,348.4,467,331S475.7,299.5,486.5,299.5z M486.5,299.5
	c10.8,0,19.5,14.1,19.5,31.5s-8.7,31.5-19.5,31.5S467,348.4,467,331S475.7,299.5,486.5,299.5z"/>
<path id="Ellipse_1_copy_4_00000153702188640407968310000018347317649736961165_" class="st7" d="M387.5,300.5
	c10.8,0,19.5,14.1,19.5,31.5s-8.7,31.5-19.5,31.5S368,349.4,368,332S376.7,300.5,387.5,300.5z M387.5,300.5
	c10.8,0,19.5,14.1,19.5,31.5s-8.7,31.5-19.5,31.5S368,349.4,368,332S376.7,300.5,387.5,300.5z M387.5,300.5
	c10.8,0,19.5,14.1,19.5,31.5s-8.7,31.5-19.5,31.5S368,349.4,368,332S376.7,300.5,387.5,300.5z M387.5,300.5
	c10.8,0,19.5,14.1,19.5,31.5s-8.7,31.5-19.5,31.5S368,349.4,368,332S376.7,300.5,387.5,300.5z M387.5,300.5
	c10.8,0,19.5,14.1,19.5,31.5s-8.7,31.5-19.5,31.5S368,349.4,368,332S376.7,300.5,387.5,300.5z"/>
<path class="st7" d="M286,300.5c10.8,0,19.5,14.1,19.5,31.5s-8.7,31.5-19.5,31.5s-19.5-14.1-19.5-31.5S275.2,300.5,286,300.5z
	 M286,300.5c10.8,0,19.5,14.1,19.5,31.5s-8.7,31.5-19.5,31.5s-19.5-14.1-19.5-31.5S275.2,300.5,286,300.5z M286,300.5
	c10.8,0,19.5,14.1,19.5,31.5s-8.7,31.5-19.5,31.5s-19.5-14.1-19.5-31.5S275.2,300.5,286,300.5z M286,300.5
	c10.8,0,19.5,14.1,19.5,31.5s-8.7,31.5-19.5,31.5s-19.5-14.1-19.5-31.5S275.2,300.5,286,300.5z M286,300.5
	c10.8,0,19.5,14.1,19.5,31.5s-8.7,31.5-19.5,31.5s-19.5-14.1-19.5-31.5S275.2,300.5,286,300.5z"/>
<path id="Triangle_1" class="st8" d="M322.6,459l35.4-20.6v41.1L322.6,459z"/>
<path id="Triangle_1-2" class="st8" d="M397.4,459L362,479.6v-41.1L397.4,459z"/>
<path id="Triangle_1-3" class="st9" d="M425.6,459l35.4-20.6v41.1L425.6,459z"/>
<path id="Triangle_1-4" class="st9" d="M500.4,459L465,479.6v-41.1L500.4,459z"/>
<text id="odd" transform="matrix(1 0 0 1 530.314 470.109)" class="st1 st2 st5">odd</text>
<text id="_12" transform="matrix(1 0 0 1 215.996 416.386)" class="st1 st2 st3">12</text>
<text id="_12_copy_2" transform="matrix(1 0 0 1 631.996 416.386)" class="st1 st2 st3">12</text>
<text id="_12_copy" transform="matrix(1 0 0 1 430.996 416.386)" class="st1 st2 st3">12</text>
<text id="to-2" transform="matrix(1 0 0 1 136.247 460.612)" class="st1 st2 st10">to</text>
<text id="_18" transform="matrix(1 0 0 1 162.496 474.516)" class="st1 st2 st3">18</text>
<text id="_0" transform="matrix(0 1 -1 0 29.3418 226.896)" class="st1 st2 st11">0</text>
<text id="_1-2" transform="matrix(0 -1 1 0 149.993 344.0244)" class="st1 st2 st3">1</text>
<text id="_2_" transform="matrix(0 -1 1 0 149.993 260.0244)" class="st1 st2 st3">2</text>
<text id="_3_" transform="matrix(0 -1 1 0 150.993 180.0234)" class="st1 st2 st3">3</text>
<text id="_4_" transform="matrix(0 -1 1 0 199.993 344.0244)" class="st1 st2 st3">4</text>
<text id="_5_" transform="matrix(0 -1 1 0 202.993 260.0244)" class="st1 st2 st3">5</text>
<text id="_6" transform="matrix(0 -1 1 0 200.993 180.0234)" class="st1 st2 st3">6</text>
<text id="_7" transform="matrix(0 -1 1 0 250.993 343.0244)" class="st1 st2 st3">7</text>
<text id="_8" transform="matrix(0 -1 1 0 249.993 261.0234)" class="st1 st2 st3">8</text>
<text id="_9" transform="matrix(0 -1 1 0 250.993 179.1553)" class="st1 st2 st3">9</text>
<text id="_10" transform="matrix(0 -1 1 0 300.993 353.0244)" class="st1 st2 st3">10</text>
<text id="_11" transform="matrix(0 -1 1 0 300.993 272.0244)" class="st1 st2 st3">11</text>
<text id="_12-2" transform="matrix(0 -1 1 0 300.993 191.1553)" class="st1 st2 st3">12</text>
<text id="_13" transform="matrix(0 -1 1 0 349.993 354.0234)" class="st1 st2 st3">13</text>
<text id="_14" transform="matrix(0 -1 1 0 352.993 273.0234)" class="st1 st2 st3">14</text>
<text id="_1-3" transform="matrix(1 0 0 1 161.428 416.272)" class="st1 st2 st3">1</text>
<text id="st" transform="matrix(1 0 0 1 181.65 416.234)" class="st1 st2 st10">st</text>
<text id="nd" transform="matrix(1 0 0 1 381.423 416.425)" class="st1 st2 st10">nd</text>
<text id="rd" transform="matrix(1 0 0 1 593.9819 415.939)" class="st1 st2 st10">rd</text>
<text id="_2" transform="matrix(0 -1 1 0 755.495 359.3584)" class="st1 st2 st12">2</text>
<text id="_2-2" transform="matrix(0 -1 1 0 755.495 279.3584)" class="st1 st2 st12">2</text>
<text id="_2-3" transform="matrix(0 -1 1 0 755.495 198.3584)" class="st1 st2 st12">2</text>
<text id="_1-4" transform="matrix(0 -1 1 0 755.495 320.3584)" class="st1 st2 st12">1</text>
<text id="to-3" transform="matrix(6.123234e-17 -1 1 6.123234e-17 755.495 339.0234)" class="st1 st2 st13">to</text>
<text id="to-4" transform="matrix(6.123234e-17 -1 1 6.123234e-17 755.495 260.0244)" class="st1 st2 st13">to</text>
<text id="to-5" transform="matrix(6.123234e-17 -1 1 6.123234e-17 755.495 177.0234)" class="st1 st2 st13">to</text>
<text id="_1-5" transform="matrix(0 -1 1 0 755.495 240.3584)" class="st1 st2 st12">1</text>
<text id="_1-6" transform="matrix(0 -1 1 0 755.495 159.3584)" class="st1 st2 st12">1</text>
<text id="_2-4" transform="matrix(1 0 0 1 356.855 416.431)" class="st1 st2 st3">2</text>
<text id="_3" transform="matrix(1 0 0 1 568.9089 416.216)" class="st1 st2 st3">3</text>
<text id="_15" transform="matrix(0 -1 1 0 349.993 192.1553)" class="st1 st2 st3">15</text>
<text id="_16" transform="matrix(0 -1 1 0 400.993 354.0234)" class="st1 st2 st3">16</text>
<text id="_17" transform="matrix(0 -1 1 0 402.993 273.0234)" class="st1 st2 st3">17</text>
<text id="_18-2" transform="matrix(0 -1 1 0 400.993 192.1553)" class="st1 st2 st3">18</text>
<text id="_19-2" transform="matrix(0 -1 1 0 450.9089 352.0244)" class="st1 st2 st3">19</text>
<text id="_20" transform="matrix(0 -1 1 0 450.822 269.1104)" class="st1 st2 st3">20</text>
<text id="_21" transform="matrix(0 -1 1 0 449.993 188.1553)" class="st1 st2 st3">21</text>
<text id="_22" transform="matrix(0 -1 1 0 499.909 351.0234)" class="st1 st2 st3">22</text>
<text id="_23" transform="matrix(0 -1 1 0 501.822 269.1104)" class="st1 st2 st3">23</text>
<text id="_24" transform="matrix(0 -1 1 0 499.993 189.1553)" class="st1 st2 st3">24</text>
<text id="_25" transform="matrix(0 -1 1 0 549.909 351.0234)" class="st1 st2 st3">25</text>
<text id="_26" transform="matrix(0 -1 1 0 550.822 270.1104)" class="st1 st2 st3">26</text>
<text id="_27" transform="matrix(0 -1 1 0 550.993 189.1553)" class="st1 st2 st3">27</text>
<text id="_28" transform="matrix(0 -1 1 0 600.909 352.0244)" class="st1 st2 st3">28</text>
<text id="_29" transform="matrix(0 -1 1 0 601.822 271.1104)" class="st1 st2 st3">29</text>
<text id="_30" transform="matrix(0 -1 1 0 601.993 190.1553)" class="st1 st2 st3">30</text>
<text id="_31" transform="matrix(0 -1 1 0 649.909 351.0234)" class="st1 st2 st3">31</text>
<text id="_32" transform="matrix(0 -1 1 0 650.822 270.1104)" class="st1 st2 st3">32</text>
<text id="_33" transform="matrix(0 -1 1 0 650.993 189.1553)" class="st1 st2 st3">33</text>
<text id="_34" transform="matrix(0 -1 1 0 701.909 350.0244)" class="st1 st2 st3">34</text>
<text id="_35" transform="matrix(0 -1 1 0 702.822 269.1104)" class="st1 st2 st3">35</text>
<text id="_36-2" transform="matrix(0 -1 1 0 702.993 188.1553)" class="st1 st2 st3">36</text>
</svg>
